<?xml version="1.0" encoding="UTF-8"?>
<svg width="131px" height="48px" viewBox="0 0 131 48" version="1.1" xmlns="http://www.w3.org/2000/svg" xmlns:xlink="http://www.w3.org/1999/xlink">
    <title>VIVES_LogoNewSmile_2022[1]</title>
    <g id="Page-1" stroke="none" stroke-width="1" fill="none" fill-rule="evenodd">
        <g id="VIVES_LogoNewSmile_2022[1]" transform="translate(0.440000, 0.650000)" fill-rule="nonzero">
            <polygon id="Path" fill="#1D1D1B" points="21.6749157 18.0042364 15.5034231 38.0269415 9.33283031 18.0042364 -2.5576607e-15 18.0042364 10.0977426 46.075619 20.8587093 46.075619 30.9573518 18.0042364"></polygon>
            <rect id="Rectangle" fill="#1D1D1B" x="33.0991063" y="18.0042364" width="8.72090045" height="28.0713826"></rect>
            <polygon id="Path" fill="#1D1D1B" points="59.4147902 38.0269415 65.5862828 18.0051363 74.8687189 18.0051363 64.7700764 46.075619 54.0091097 46.075619 43.9104672 18.0051363 53.2441974 18.0051363"></polygon>
            <path d="M94.9112217,29.3231391 C94.9112217,27.8479082 94.4012802,26.6741427 93.3813971,25.8018427 C92.3615139,24.9295427 91.0863601,24.4936926 89.5559355,24.494292 C88.0939031,24.494292 86.8613444,24.9142444 85.8582593,25.7541482 C84.8551743,26.5940519 84.2348454,27.7846155 83.9972726,29.3258388 L94.9112217,29.3231391 Z M103.683416,34.1024913 L83.9459785,34.1024913 C84.0821629,35.8464914 84.6520976,37.1795387 85.6557825,38.101633 C86.6594675,39.0237273 87.8920262,39.4850744 89.3534587,39.4856743 C91.5288094,39.4856743 93.041836,38.5800781 93.8925385,36.7688857 L103.174075,36.7688857 C102.703863,38.6025461 101.823197,40.3054127 100.59857,41.7489149 C99.3579121,43.2253457 97.8025903,44.3826131 95.9326046,45.220717 C94.062619,46.058821 91.9712587,46.4787728 89.6585238,46.4805726 C86.8706433,46.4805726 84.3887278,45.8938399 82.2127772,44.7203744 C80.0622797,43.5714616 78.2909033,41.8238411 77.1130617,39.689051 C75.8892019,37.5095008 75.2772721,34.9597931 75.2772721,32.0399277 C75.2772721,29.1200624 75.8805029,26.5703546 77.0869646,24.3908044 C78.2509803,22.253926 80.015429,20.5048068 82.1623829,19.3594811 C84.3371337,18.1860156 86.8358473,17.5992829 89.6585238,17.5992829 C92.4128081,17.5992829 94.8611275,18.1692175 97.0034819,19.3090869 C99.1129762,20.4176163 100.857314,22.1119548 102.026706,24.1883276 C103.233168,26.3012855 103.836699,28.7664029 103.837299,31.58368 C103.835183,32.4258389 103.784102,33.2671623 103.684316,34.1033912" id="Shape" fill="#1D1D1B"></path>
            <path d="M111.843681,45.220717 C109.905903,44.3808133 108.376078,43.231945 107.254207,41.774112 C106.1493,40.3643278 105.491184,38.6563591 105.364424,36.8696742 L113.982736,36.8696742 C114.085324,37.8421627 114.544571,38.6301724 115.360478,39.2337032 C116.176384,39.837234 117.179169,40.1389995 118.368833,40.1389995 C119.457108,40.1389995 120.298812,39.9290235 120.893944,39.5090717 C121.489075,39.0891198 121.786341,38.5443822 121.785741,37.874859 C121.785741,37.0697512 121.36099,36.4743195 120.511488,36.0885637 C119.661985,35.7028079 118.284843,35.2753569 116.380061,34.8062107 C114.340295,34.3364645 112.64009,33.8418212 111.279446,33.3222808 C109.921012,32.8034498 108.712177,31.956338 107.760849,30.8565634 C106.774562,29.7334921 106.281718,28.215966 106.282318,26.3039852 C106.269608,24.7330475 106.740908,23.1962939 107.632164,21.9025896 C108.532061,20.5779415 109.857909,19.5298616 111.609708,18.75835 C113.361507,17.9868384 115.443868,17.6010826 117.856792,17.6010826 C121.427583,17.6010826 124.24126,18.4730827 126.297824,20.2170828 C128.354389,21.9610829 129.535953,24.2750177 129.842518,27.1588872 L121.788441,27.1588872 C121.652257,26.1869986 121.218806,25.415787 120.48809,24.8452524 C119.757374,24.2747177 118.797484,23.9897504 117.60842,23.9903503 C116.588537,23.9903503 115.806527,24.1832282 115.262389,24.568984 C114.735526,24.9208641 114.427341,25.5195449 114.447083,26.1528025 C114.447083,26.9585101 114.880533,27.5623409 115.747434,27.9642949 C116.614334,28.3662488 117.964179,28.7688027 119.796969,29.1719564 C121.904528,29.708295 123.621831,30.2362345 124.948879,30.7557749 C126.275927,31.2753154 127.440393,32.1152191 128.442279,33.2754861 C129.444764,34.4327535 129.963104,35.9838757 129.9973,37.9288528 C129.9973,39.5720644 129.529654,41.0391963 128.594361,42.3302483 C127.659068,43.6213003 126.316122,44.6357841 124.565523,45.3736995 C122.814324,46.1116149 120.782956,46.4805726 118.471421,46.4805726 C115.988906,46.4805726 113.778759,46.0606207 111.840981,45.220717" id="Path" fill="#1D1D1B"></path>
            <path d="M64.7286811,3.9811437 C65.1420976,4.21542127 65.4756583,4.56841884 65.6861714,4.99442756 C65.9153451,5.44197627 66.029932,5.97831479 66.029932,6.60344314 L66.029932,10.6718768 L64.2778328,10.6718768 L64.2778328,6.84101591 C64.2778328,6.29027904 64.1401486,5.86672758 63.8647801,5.57036155 C63.5894117,5.27399552 63.2138547,5.1258125 62.7381092,5.1258125 C62.2539647,5.1258125 61.8721085,5.27399552 61.5925405,5.57036155 C61.3129726,5.86672758 61.1731886,6.29027904 61.1731886,6.84101591 L61.1731886,10.6718768 L59.4201895,10.6718768 L59.4201895,1.40833858 L61.1731886,1.40833858 L61.1731886,4.60027274 C61.4081411,4.29182685 61.7178635,4.04838508 62.0730855,3.89295381 C62.466969,3.71822198 62.8939796,3.63073237 63.324842,3.6364832 C63.8147937,3.6273768 64.298654,3.74617069 64.7286811,3.9811437 Z" id="Path" fill="#1D1D1B"></path>
            <path d="M68.7215235,10.3407148 C68.1910712,10.0481006 67.7542821,9.61131141 67.4616679,9.08085919 C67.1487531,8.50573981 66.990606,7.85919717 67.0027205,7.20457424 C66.9893434,6.54789368 67.1515079,5.89954607 67.4724666,5.3264895 C67.7736507,4.79454007 68.2183187,4.35797964 68.7557195,4.0666339 C69.8932066,3.47394756 71.2484164,3.47394756 72.3859035,4.0666339 C72.9233043,4.35797964 73.3679723,4.79454007 73.6691564,5.3264895 C73.9901151,5.89954607 74.1522796,6.54789368 74.1389025,7.20457424 C74.1520189,7.86283114 73.9852461,8.5121871 73.6565578,9.08265899 C73.3469749,9.61464198 72.896319,10.0506602 72.3544071,10.3425146 C71.7903322,10.6428503 71.1593971,10.7954759 70.5204173,10.7861637 C69.8924771,10.7946717 69.2729351,10.6412584 68.7215235,10.3407148 L68.7215235,10.3407148 Z M71.421214,9.02596549 C71.7074785,8.86478955 71.9402421,8.62326606 72.0907373,8.33124511 C72.2672087,7.98255021 72.3535258,7.59520577 72.3418085,7.20457424 C72.3418085,6.54464988 72.1684284,6.03770799 71.8216681,5.68374855 C71.4915781,5.3358197 71.0305363,5.1425217 70.5510138,5.15100962 C70.0741779,5.14013174 69.6155317,5.3340736 69.2911582,5.68374855 C68.9539968,6.03830792 68.7851162,6.54524981 68.7845146,7.20457424 C68.7839163,7.86389868 68.9485974,8.37084057 69.2785596,8.72539993 C69.5967718,9.07514377 70.0513272,9.26924947 70.5240169,9.25723898 C70.8370198,9.25992109 71.145422,9.18181321 71.4194142,9.03046497 L71.421214,9.02596549 Z" id="Shape" fill="#1D1D1B"></path>
            <path d="M79.2629153,3.93074948 C79.6320195,4.1157534 79.9500074,4.38862353 80.1889091,4.7253584 L80.1889091,3.73547186 L81.9536069,3.73547186 L81.9536069,10.7222711 C81.9638735,11.3188674 81.8308665,11.9092211 81.5657513,12.4437738 C81.3050462,12.9506474 80.8997824,13.3687519 80.4012848,13.6451361 C79.884144,13.9415021 79.2584158,14.0896851 78.5240999,14.0896851 C77.5390128,14.0896851 76.7315054,13.8602114 76.1015776,13.401264 C75.4839922,12.9648165 75.0917724,12.2769486 75.0307003,11.5231793 L76.7711009,11.5231793 C76.8647303,11.8427589 77.0777183,12.1140689 77.3659327,12.2808924 C77.7015607,12.476586 78.0853666,12.5741744 78.4737057,12.5625601 C78.9830473,12.5625601 79.3961,12.4101776 79.7128637,12.1054125 C80.0296274,11.8006475 80.1883092,11.3396003 80.1889091,10.7222711 L80.1889091,9.64239483 C79.9458072,9.98160183 79.6264787,10.2590108 79.256616,10.452302 C78.8385557,10.6740963 78.3709429,10.7858898 77.8977717,10.7771648 C77.3316874,10.7821011 76.7758571,10.6260566 76.2950554,10.3272163 C75.8031201,10.0179255 75.4068186,9.57800598 75.1503866,9.05656198 C74.8619122,8.47101049 74.718105,7.82480408 74.7310347,7.17217796 C74.7184247,6.52563936 74.8622946,5.88563407 75.1503866,5.30669177 C75.405122,4.79106076 75.7995557,4.35733956 76.2887561,4.05493524 C76.7735829,3.76131608 77.3310113,3.60948855 77.8977717,3.61668547 C78.3715687,3.60899072 78.8401133,3.71678378 79.2629153,3.93074948 Z M79.9387378,6.10849987 C79.7832727,5.81635514 79.549176,5.57353051 79.2629153,5.40748022 C78.98504,5.24686059 78.6695757,5.16271607 78.34862,5.16360817 C77.6918934,5.15754078 77.086295,5.51722326 76.7774001,6.09680121 C76.599922,6.42850854 76.5115522,6.80059193 76.5209295,7.17667744 C76.5123094,7.55756278 76.6005578,7.93439863 76.7774001,8.27185192 C76.9328858,8.56890895 77.1665726,8.81784294 77.4532227,8.9917694 C77.722853,9.15626066 78.0327766,9.24285238 78.34862,9.2419561 C78.6696315,9.24326404 78.9852064,9.15909001 79.2629153,8.99806868 C79.5493857,8.83228612 79.7835479,8.58939351 79.9387378,8.29704903 C80.272302,7.60471551 80.272302,6.7981337 79.9387378,6.10580018 L79.9387378,6.10849987 Z" id="Shape" fill="#1D1D1B"></path>
            <path d="M89.8160057,7.73011401 L84.7459868,7.73011401 C84.7873821,8.23105659 84.962562,8.62341162 85.2715266,8.9071791 C85.5815816,9.19165296 85.9901682,9.34430814 86.410796,9.33283031 C87.0617214,9.33283031 87.5248683,9.05326236 87.8002367,8.49412644 L89.6900201,8.49412644 C89.495653,9.1533741 89.0915611,9.73123491 88.5390521,10.1400378 C87.9715171,10.5701885 87.274697,10.7849043 86.4485917,10.7843639 C85.8203206,10.7952201 85.2000467,10.6423225 84.6487979,10.3407148 C84.123274,10.0485488 83.6930614,9.61115037 83.40964,9.08085919 C83.104803,8.50257893 82.9518379,7.85634768 82.9650909,7.20277445 C82.9506876,6.54609364 83.1013767,5.89630478 83.4033407,5.31299105 C83.6813933,4.78506716 84.1077387,4.34996334 84.6299001,4.06123452 C85.7542006,3.4814069 87.0885432,3.4767203 88.216889,4.04863596 C88.730549,4.32474545 89.1524534,4.7447733 89.4308498,5.25719744 C89.726928,5.81010847 89.875685,6.42992907 89.8628003,7.05699116 C89.8654893,7.28226339 89.8498394,7.50738079 89.8160057,7.73011401 Z M88.0504081,6.55304892 C88.0569026,6.13838607 87.8780689,5.74244432 87.562664,5.47317269 C87.2375185,5.19938368 86.8230985,5.05462489 86.3981974,5.06641931 C85.9964303,5.05458224 85.6051013,5.19542208 85.303023,5.46057413 C85.0030573,5.72334402 84.8212782,6.08840218 84.7576855,6.55574861 L88.0504081,6.55304892 Z" id="Shape" fill="#1D1D1B"></path>
            <path d="M92.0198531,10.478399 C91.598343,10.2962113 91.2301293,10.0097541 90.9498757,9.64599442 C90.6921437,9.31006645 90.5416169,8.90427146 90.5179253,8.48152789 L92.282623,8.48152789 C92.3155079,8.74798513 92.4584488,8.98850431 92.6767778,9.14475187 C92.9250802,9.32605361 93.2271311,9.41860224 93.5343795,9.40752175 C93.8685412,9.40752175 94.1295113,9.34092939 94.3172898,9.20774465 C94.4927942,9.09582871 94.5990135,8.9020549 94.5989575,8.69390354 C94.5989575,8.46892933 94.4840707,8.30004869 94.254297,8.18726161 C93.9008635,8.03191202 93.5343759,7.90814343 93.1591225,7.81740401 C92.7267586,7.7189805 92.3020952,7.58935589 91.8884682,7.42954846 C91.559341,7.29707854 91.2672322,7.08679721 91.0371657,6.8167187 C90.7986931,6.54045036 90.677207,6.16969286 90.677207,5.70174649 C90.6752404,5.3252801 90.7913761,4.95767436 91.0092689,4.65066696 C91.2506612,4.31697334 91.5799512,4.05684355 91.9604599,3.89925309 C92.4220367,3.70626133 92.9190247,3.61244373 93.4191927,3.62388465 C94.245298,3.62388465 94.9052224,3.83056096 95.3989658,4.24391358 C95.8927092,4.65726621 96.1626783,5.21430236 96.208873,5.91502205 L94.5395643,5.91502205 C94.5239052,5.65683536 94.3984461,5.41770969 94.1949038,5.25809734 C93.9906272,5.09521601 93.7179585,5.0133254 93.3750978,5.0133254 C93.0583341,5.0133254 92.814462,5.07181869 92.6434816,5.18880528 C92.4774394,5.2948259 92.3796164,5.48055285 92.3861111,5.67744928 C92.3861111,5.9102226 92.5030977,6.08750228 92.7370709,6.20928832 C93.0860177,6.37029094 93.4510032,6.49396371 93.8259461,6.57824603 C94.2475929,6.67827662 94.6616702,6.80788252 95.0651041,6.96610158 C95.3928149,7.10131935 95.6827903,7.31409151 95.9101072,7.58613051 C96.1485799,7.86599844 96.270066,8.23495615 96.2799648,8.69390354 C96.2853012,9.07978395 96.1691325,9.45756839 95.9479029,9.77377977 C95.7047394,10.1063658 95.3724975,10.3634243 94.9895127,10.5152948 C94.5311931,10.7038789 94.0388682,10.7957877 93.5433785,10.7852638 C93.019422,10.7932508 92.4998622,10.6886023 92.0198531,10.478399 L92.0198531,10.478399 Z" id="Path" fill="#1D1D1B"></path>
            <path d="M97.4516305,5.32019022 C97.7300204,4.79641855 98.1512804,4.36236473 98.6664913,4.06843369 C99.2091159,3.76550888 99.8224455,3.61209885 100.443788,3.62388465 C101.303489,3.62388465 102.015008,3.83896 102.578343,4.26911069 C103.141678,4.69926139 103.519335,5.30219229 103.711313,6.07790338 L101.82153,6.07790338 C101.733248,5.79371171 101.55555,5.54562826 101.314888,5.37058445 C101.05554,5.19305688 100.746187,5.10318366 100.432089,5.11411384 C99.9317463,5.11411384 99.5354917,5.29409322 99.2433252,5.65405196 C98.9511587,6.0140107 98.8050754,6.52935164 98.8050754,7.20007476 C98.8050754,7.85999912 98.9511587,8.36994068 99.2433252,8.72989942 C99.5301396,9.09049703 99.9717033,9.29272721 100.432089,9.27433702 C101.141208,9.27433702 101.604355,8.95727336 101.82153,8.32314604 L103.711313,8.32314604 C103.546356,9.03205978 103.144459,9.66347464 102.572044,10.1130409 C102.004509,10.5557901 101.29509,10.7769262 100.443788,10.7762649 C99.8225274,10.7883253 99.209203,10.6352271 98.6664913,10.3326157 C98.1510336,10.0385993 97.7297219,9.60418015 97.4516305,9.0799593 C96.8684982,7.8916894 96.8684982,6.50036105 97.4516305,5.31209115 L97.4516305,5.32019022 Z" id="Path" fill="#1D1D1B"></path>
            <path d="M110.058286,3.9811437 C110.471702,4.21542127 110.805263,4.56841884 111.015776,4.99442756 C111.24555,5.44197627 111.360436,5.97831479 111.360436,6.60344314 L111.360436,10.6718768 L109.607437,10.6718768 L109.607437,6.84101591 C109.607437,6.29027904 109.469753,5.86672758 109.194385,5.57036155 C108.919016,5.27399552 108.543459,5.1258125 108.067714,5.1258125 C107.583569,5.1258125 107.201713,5.27399552 106.922145,5.57036155 C106.642577,5.86672758 106.502793,6.29027904 106.502793,6.84101591 L106.502793,10.6718768 L104.749794,10.6718768 L104.749794,1.40833858 L106.502793,1.40833858 L106.502793,4.60027274 C106.737859,4.29193893 107.04755,4.04852212 107.40269,3.89295381 C107.796539,3.71811304 108.223573,3.6306185 108.654447,3.6364832 C109.144403,3.62733518 109.628274,3.74613166 110.058286,3.9811437 Z" id="Path" fill="#1D1D1B"></path>
            <path d="M114.052028,10.3407148 C113.521187,10.0486179 113.084269,9.61170016 112.792172,9.08085919 C112.479074,8.50523248 112.321506,7.85790354 112.335025,7.20277445 C112.321809,6.54622527 112.483633,5.89799524 112.803871,5.32468971 C113.105055,4.79274027 113.549723,4.35617984 114.087124,4.06483411 C115.224927,3.47214135 116.580404,3.47214135 117.718208,4.06483411 C118.255434,4.35641529 118.700044,4.79291864 119.001461,5.32468971 C119.321698,5.89799524 119.483523,6.54622527 119.470307,7.20277445 C119.483742,7.8609523 119.317279,8.51031472 118.988862,9.08085919 C118.679019,9.61263863 118.228428,10.048594 117.686711,10.3407148 C117.122567,10.6408665 116.491679,10.7934805 115.852721,10.7843639 C115.224319,10.7938557 114.604097,10.6410475 114.052028,10.3407148 L114.052028,10.3407148 Z M116.751718,9.02596549 C117.037594,8.86428776 117.270231,8.62289637 117.421242,8.33124511 C117.597112,7.982366 117.683103,7.59510014 117.671413,7.20457424 C117.671413,6.54464988 117.498333,6.03770799 117.152173,5.68374855 C116.822083,5.3358197 116.361041,5.1425217 115.881518,5.15100962 C115.404616,5.13978177 114.945831,5.33378191 114.621663,5.68374855 C114.283301,6.03830792 114.114121,6.54524981 114.114121,7.20457424 C114.114121,7.86389868 114.279102,8.37084057 114.609064,8.72539993 C114.927205,9.07524355 115.381809,9.26936973 115.854521,9.25723898 C116.167514,9.25983985 116.475896,9.1817371 116.749919,9.03046497 L116.751718,9.02596549 Z" id="Shape" fill="#1D1D1B"></path>
            <path d="M121.787541,10.3407148 C121.25682,10.0484583 120.819942,9.61158025 120.527686,9.08085919 C120.214587,8.50523248 120.05702,7.85790354 120.070538,7.20277445 C120.057322,6.54622527 120.219147,5.89799524 120.539384,5.32468971 C120.840568,4.79274027 121.285236,4.35617984 121.822637,4.06483411 C122.960441,3.47214135 124.315918,3.47214135 125.453721,4.06483411 C125.990948,4.35641529 126.435558,4.79291864 126.736974,5.32468971 C127.057212,5.89799524 127.219036,6.54622527 127.20582,7.20277445 C127.219256,7.8609523 127.052792,8.51031472 126.724375,9.08085919 C126.414533,9.61263863 125.963942,10.048594 125.422225,10.3407148 C124.85808,10.6408665 124.227193,10.7934805 123.588235,10.7843639 C122.95986,10.7936118 122.339699,10.6408186 121.787541,10.3407148 L121.787541,10.3407148 Z M124.487232,9.02596549 C124.773108,8.86428776 125.005744,8.62289637 125.156755,8.33124511 C125.332626,7.982366 125.418616,7.59510014 125.406926,7.20457424 C125.406926,6.54464988 125.233846,6.03770799 124.887686,5.68374855 C124.557596,5.3358197 124.096554,5.1425217 123.617032,5.15100962 C123.140218,5.1402481 122.681617,5.3341706 122.357176,5.68374855 C122.020015,6.03830792 121.851134,6.54524981 121.850532,7.20457424 C121.849934,7.86389868 122.014915,8.37084057 122.345477,8.72539993 C122.663619,9.07524355 123.118222,9.26936973 123.590935,9.25723898 C123.903928,9.25983985 124.21231,9.1817371 124.486332,9.03046497 L124.487232,9.02596549 Z" id="Shape" fill="#1D1D1B"></path>
            <polygon id="Path" fill="#1D1D1B" points="130 1.40833858 130 10.6718768 128.247901 10.6718768 128.247901 1.40833858"></polygon>
            <path d="M44.7815673,5.1153214e-15 C44.8107825,2.63524515 43.42164,5.08291027 41.1441953,6.40903867 C38.8667507,7.73516707 36.0523624,7.73516707 33.7749178,6.40903867 C31.4974732,5.08291027 30.1083306,2.63524515 30.1375458,5.1153214e-15 L23.20834,5.1153214e-15 C23.2705254,7.8245588 29.6311511,14.1348345 37.455957,14.1348345 C45.2807629,14.1348345 51.6413886,7.8245588 51.703574,5.1153214e-15 L44.7815673,5.1153214e-15 Z" id="Path" fill="#E30613"></path>
        </g>
    </g>
</svg>